<svg width="200" height="229" fill="none" xmlns="http://www.w3.org/2000/svg"><path fill="#fff" d="m127.477 47.716-10.789 10.789-42.542-42.541 8.01-8.01a3.933 3.933 0 0 1 5.559-.002zm15.564-30.59 23.72 23.719v-9.629L147.854 12.31c-4.184-4.187-10.998-4.187-15.188 0l-15.482 15.484L92.531 3.142c-4.19-4.19-11.002-4.187-15.188 0L32.835 47.648v9.629l36.496-36.498 37.564 37.563c-1.898-.764-4.246-1.375-7.713-1.375-5.185 0-7.893 1.361-10.282 2.563-2.044 1.024-3.658 1.837-7.227 1.837-3.572 0-5.188-.813-7.23-1.837-2.39-1.202-5.1-2.563-10.285-2.563s-7.895 1.361-10.285 2.563q-.1.05-.2.097v7.434c1.234-.443 2.277-.959 3.257-1.45 2.042-1.024 3.657-1.834 7.228-1.834s5.186.81 7.227 1.834c2.39 1.202 5.102 2.563 10.288 2.563 5.185 0 7.892-1.361 10.283-2.563 2.043-1.024 3.656-1.834 7.226-1.834 3.568 0 5.182.81 7.222 1.834 2.39 1.202 5.099 2.563 10.284 2.563v-.04l23.965-23.963 26.108 26.105v-9.629l-26.108-26.105-8.361 8.361-10.295-10.295 15.485-15.482a3.933 3.933 0 0 1 5.559 0m-19.394 64.723c-2.062 1.028-3.693 1.843-7.305 1.843s-5.243-.814-7.31-1.843c-2.403-1.198-5.129-2.559-10.345-2.559-5.213 0-7.937 1.361-10.342 2.558-2.065 1.03-3.695 1.844-7.307 1.844-3.614 0-5.246-.814-7.312-1.843-2.406-1.2-5.133-2.559-10.348-2.559-5.217 0-7.944 1.361-10.349 2.558l-.08.04v7.443c1.172-.427 2.172-.919 3.115-1.388 2.066-1.029 3.699-1.843 7.314-1.843 3.613 0 5.245.814 7.312 1.843 2.405 1.197 5.132 2.556 10.348 2.556 5.214 0 7.94-1.359 10.344-2.558 2.065-1.027 3.695-1.841 7.305-1.841 3.613 0 5.244.814 7.309 1.841 2.405 1.2 5.132 2.558 10.346 2.558s7.938-1.359 10.344-2.558c2.062-1.027 3.693-1.841 7.303-1.841 3.612 0 5.243.814 7.303 1.841.907.454 1.859.927 2.972 1.34v-7.466c-2.388-1.19-5.11-2.525-10.275-2.525-5.212 0-7.938 1.361-10.342 2.558m-94.731 91.983c-3.513 1.083-7.476 1.353-11.08 1.353-5.315 0-10.629-3.424-10.539-8.919v-17.658c-.09-5.583 5.314-8.285 10.72-8.376 3.513 0 7.386.81 10.899 2.162zm2.268-56.39h-2.268v18.465c-3.333-2.52-6.937-2.881-10.9-2.881C9.009 133.025 0 138.52 0 148.607v17.479c0 10.359 8.918 15.312 17.837 15.493 5.944 0 12.16-1.261 18.286-3.332v-55.869a4.94 4.94 0 0 0-4.94-4.937m45.554 16.303h-2.27v39.278c-3.152 1.079-6.846 1.531-10.988 1.531-5.225-.091-10.451-3.154-10.451-8.558v-27.311c0-2.729-2.21-4.94-4.938-4.94h-2.268v32.07c0 10.27 8.828 15.405 17.657 15.496 3.962 0 9.458-.361 18.196-3.426v-39.2c0-2.729-2.21-4.94-4.938-4.94m43.462 31.981c.091 5.586-5.316 8.376-10.72 8.467-3.693 0-7.476-.81-10.9-2.071v-31.169c3.424-.991 7.388-1.082 11.082-1.082 5.315 0 10.629 3.063 10.538 8.47zm-10.538-32.7c-5.947 0-12.162 1.35-18.288 3.333v60.445h2.27a4.937 4.937 0 0 0 4.937-4.937v-13.079c3.333 2.162 7.026 2.523 10.811 2.523 9.098.088 18.105-5.407 18.105-15.585v-17.206c0-10.45-8.919-15.403-17.835-15.494m39.822.81c-7.385 1.443-13.332 6.757-13.332 15.135v31.527h2.268a4.94 4.94 0 0 0 4.94-4.937v-26.59c0-4.324 3.512-7.028 7.204-8.018 2.974-.721 3.784-.36 7.119.18v-7.388c-2.704-.54-5.677-.54-8.199.091m43.67 21.079h-21.799v-6.486c-.09-5.674 5.316-8.376 10.809-8.376 5.316 0 10.99 2.702 10.99 8.197zm-10.99-21.98c-9.007 0-18.105 5.046-18.105 15.494v17.658c0 10.359 9.098 15.493 18.105 15.493 6.759 0 13.874-3.423 17.118-10.268l-6.486-3.244c-1.893 4.324-6.398 6.395-10.632 6.395-5.493 0-10.899-2.702-10.809-8.376v-5.136H200v-12.522c0-10.448-9.009-15.494-17.837-15.494M34.14 215.768v9.34c0 .218-.118.335-.336.335h-1.61c-.217 0-.335-.117-.335-.335v-10.816c0-.218.118-.335.336-.335h6.908c.218 0 .336.117.336.335v10.816c0 .218-.118.335-.336.335h-1.61c-.218 0-.335-.117-.335-.335v-9.34zm12.896 5.081v4.259c0 .218-.117.335-.335.335h-1.61c-.218 0-.336-.117-.336-.335v-10.816c0-.218.118-.335.336-.335h2.75c1.157 0 2.012.151 2.565.469.906.503 1.359 1.409 1.359 2.733 0 1.124-.336 2.013-1.023 2.683q-1.032 1.007-2.817 1.007zm0-5.132v3.321h.52c.285 0 .536-.017.72-.051.185-.033.386-.1.604-.218.202-.117.353-.285.453-.536q.15-.378.151-.956c0-.285-.033-.537-.117-.755a1.7 1.7 0 0 0-.285-.469 1.1 1.1 0 0 0-.436-.235 4 4 0 0 0-.436-.101zm16.737 3.27c.016.218.016.47.016.721 0 .252 0 .503-.016.721-.017.218-.05.554-.101.99a7 7 0 0 1-.235 1.173 6.6 6.6 0 0 1-.452 1.124 4.1 4.1 0 0 1-.738 1.04c-.285.285-.654.503-1.107.704-.453.184-.973.268-1.526.268s-1.056-.084-1.51-.268c-.452-.201-.82-.419-1.106-.704a3.8 3.8 0 0 1-.738-1.04 5.6 5.6 0 0 1-.47-1.124 7 7 0 0 1-.234-1.173 28 28 0 0 1-.1-.99c-.017-.218-.017-.469-.017-.721 0-.251 0-.503.017-.738.016-.218.05-.553.1-.989a7 7 0 0 1 .235-1.174c.1-.352.251-.721.47-1.14a3.9 3.9 0 0 1 .737-1.023q.428-.428 1.107-.704c.453-.185.956-.268 1.509-.268s1.073.083 1.526.268q.68.276 1.107.704c.285.285.52.621.738 1.023.2.419.352.788.452 1.14s.185.738.235 1.174q.076.654.1 1.006m-5.953.721c0 2.801.603 4.209 1.794 4.209 1.19 0 1.794-1.408 1.794-4.209 0-2.817-.603-4.226-1.794-4.226-1.19 0-1.794 1.409-1.794 4.226m10.601 5.4v-10.816c0-.218.117-.335.335-.335h1.61c.217 0 .335.117.335.335v4.829c0 .218 0 .503-.017.822s-.034.838-.05 1.526h.067a67 67 0 0 1 1.106-2.599l2.113-4.561c.084-.185.185-.302.269-.336.05-.016.1-.016.167-.016h1.593c.218 0 .336.117.336.335v10.816c0 .218-.118.335-.336.335h-1.61c-.217 0-.335-.117-.335-.335v-5.333c0-.452.017-1.056.067-1.844h-.067a28 28 0 0 1-.939 2.247l-2.314 4.98c-.05.117-.084.184-.134.218-.05.05-.134.067-.252.067h-1.61c-.217 0-.335-.117-.335-.335m14.171-5.014v-1.14c0-.218.117-.336.336-.336h.352c.335 0 .62-.05.872-.151.251-.1.419-.218.536-.335a1.1 1.1 0 0 0 .268-.436c.068-.184.101-.319.118-.402v-.286c0-.134-.017-.268-.034-.402a5 5 0 0 0-.184-.486 1.06 1.06 0 0 0-.47-.47c-.234-.117-.52-.168-.855-.168-.486 0-.99.185-1.492.537-.151.118-.252.168-.319.168s-.134-.05-.218-.168l-.57-.855c-.05-.084-.084-.151-.084-.218 0-.185.151-.352.436-.52q1.182-.754 2.666-.754 1.535 0 2.415.804c.587.537.872 1.292.872 2.247 0 .42-.067.805-.184 1.141q-.202.528-.503.805a5 5 0 0 1-.537.452c-.15.101-.319.185-.47.235a2.37 2.37 0 0 1 1.526.922c.353.503.537 1.141.537 1.912 0 1.023-.335 1.861-.99 2.532-.653.671-1.693 1.006-3.102 1.006-1.274 0-2.23-.268-2.867-.788-.134-.101-.201-.201-.201-.285a.6.6 0 0 1 .084-.252l.52-.939c.067-.117.133-.167.217-.167.034 0 .168.067.42.201.486.285 1.056.419 1.71.419.688 0 1.207-.201 1.543-.587.251-.302.385-.687.385-1.14 0-.721-.234-1.224-.687-1.509-.285-.168-.687-.252-1.224-.252h-.486c-.219 0-.336-.117-.336-.335m10.097-6.137h2.649c1.341 0 2.297.218 2.884.654.688.519 1.023 1.291 1.023 2.28 0 1.207-.57 2.046-1.71 2.532.167.05.335.101.486.151.15.067.335.168.536.319.202.151.386.318.537.503.151.201.268.469.386.788.1.319.15.687.15 1.09 0 .553-.083 1.023-.268 1.425-.184.403-.402.704-.654.922a2.9 2.9 0 0 1-.989.52 5.2 5.2 0 0 1-1.107.252 12 12 0 0 1-1.14.05h-2.784c-.218 0-.335-.117-.335-.335v-10.816c0-.218.118-.335.335-.335m1.945 4.745h.52c1.224 0 1.827-.52 1.827-1.576 0-.939-.553-1.409-1.643-1.409h-.704zm0 4.98h.603c.302 0 .554-.016.772-.05q.301-.05.654-.201a.98.98 0 0 0 .52-.486c.117-.218.184-.503.184-.856 0-.318-.05-.586-.168-.805a1.7 1.7 0 0 0-.369-.486 1.5 1.5 0 0 0-.536-.235 9 9 0 0 0-.537-.1h-1.123zm17.475-4.695c.017.218.017.47.017.721 0 .252 0 .503-.017.721s-.05.554-.101.99c-.05.436-.134.821-.234 1.173a6.6 6.6 0 0 1-.453 1.124 4.1 4.1 0 0 1-.738 1.04c-.285.285-.654.503-1.107.704-.452.184-.972.268-1.526.268-.553 0-1.056-.084-1.509-.268-.453-.201-.821-.419-1.107-.704a3.8 3.8 0 0 1-.737-1.04 5.6 5.6 0 0 1-.47-1.124 7.4 7.4 0 0 1-.235-1.173c-.05-.436-.084-.772-.1-.99-.017-.218-.017-.469-.017-.721 0-.251 0-.503.017-.738.016-.218.05-.553.1-.989s.135-.822.235-1.174c.101-.352.252-.721.47-1.14.201-.402.452-.738.737-1.023q.428-.428 1.107-.704c.453-.185.956-.268 1.509-.268.554 0 1.074.083 1.526.268q.68.276 1.107.704c.285.285.52.621.738 1.023.201.419.352.788.453 1.14.1.352.184.738.234 1.174q.076.654.101 1.006m-5.953.721c0 2.801.604 4.209 1.794 4.209 1.191 0 1.795-1.408 1.795-4.209 0-2.817-.604-4.226-1.795-4.226s-1.794 1.409-1.794 4.226m16.334 5.735h-4.762v2.381c0 .218-.118.336-.336.336h-1.458c-.218 0-.336-.118-.336-.336v-3.856c0-.219.118-.336.336-.336h.318c.453-.805.755-1.744.939-2.817.168-1.023.252-2.13.252-3.287l.016-3.236c0-.218.118-.335.336-.335h5.483c.218 0 .336.117.336.335v9.34h.67c.218 0 .336.117.336.336v3.856c0 .218-.118.336-.336.336h-1.459c-.217 0-.335-.118-.335-.336zm-1.157-1.811v-7.864h-1.727v2.096c0 1.257-.134 2.465-.386 3.639a8.4 8.4 0 0 1-.738 2.129zm13.551-.168.519.939a.6.6 0 0 1 .084.252c0 .084-.067.184-.201.285-.637.52-1.509.788-2.616.788-2.867 0-4.309-1.962-4.309-5.869 0-.989.1-1.878.285-2.633.184-.754.419-1.358.704-1.794s.62-.788 1.006-1.073a3.7 3.7 0 0 1 1.14-.553 5 5 0 0 1 1.124-.134c1.039 0 1.878.285 2.515.838.218.184.319.319.319.436 0 .034-.034.101-.084.218l-.621.939c-.067.117-.134.168-.184.168-.084 0-.201-.067-.352-.185-.503-.402-.973-.604-1.392-.604-.57 0-1.023.185-1.358.537-.486.486-.721 1.727-.721 3.723q0 2.59.654 3.471c.352.469.855.704 1.475.704.453 0 .906-.134 1.375-.419.218-.134.369-.201.42-.201.083 0 .15.05.218.167m8.184-7.495v9.139c0 .218-.117.335-.335.335h-1.61c-.218 0-.335-.117-.335-.335v-9.139h-2.231q-.25 0-.251-.252v-1.509q0-.251.251-.251h7.127c.218 0 .285.117.218.352l-.369 1.392c-.05.184-.168.268-.352.268zm6.659-2.012h2.649c1.342 0 2.298.218 2.884.654.688.519 1.023 1.291 1.023 2.28 0 1.207-.57 2.046-1.71 2.532.168.05.335.101.486.151.151.067.336.168.537.319s.385.318.536.503c.151.201.269.469.386.788.101.319.151.687.151 1.09 0 .553-.084 1.023-.268 1.425-.185.403-.403.704-.654.922a2.9 2.9 0 0 1-.99.52 5.2 5.2 0 0 1-1.106.252c-.336.033-.721.05-1.141.05h-2.783c-.218 0-.336-.117-.336-.335v-10.816c0-.218.118-.335.336-.335m1.945 4.745h.52c1.224 0 1.828-.52 1.828-1.576 0-.939-.554-1.409-1.644-1.409h-.704zm0 4.98h.604c.302 0 .553-.016.771-.05q.302-.05.654-.201a.98.98 0 0 0 .52-.486c.117-.218.184-.503.184-.856 0-.318-.05-.586-.167-.805a1.7 1.7 0 0 0-.369-.486 1.5 1.5 0 0 0-.537-.235 9 9 0 0 0-.537-.1h-1.123zm17.474-4.695c.017.218.017.47.017.721 0 .252 0 .503-.017.721s-.05.554-.1.99a7 7 0 0 1-.235 1.173 6.6 6.6 0 0 1-.453 1.124 4.1 4.1 0 0 1-.738 1.04c-.285.285-.654.503-1.106.704-.453.184-.973.268-1.526.268-.554 0-1.057-.084-1.51-.268-.452-.201-.821-.419-1.106-.704a3.8 3.8 0 0 1-.738-1.04 5.6 5.6 0 0 1-.47-1.124 7 7 0 0 1-.234-1.173 27 27 0 0 1-.101-.99c-.017-.218-.017-.469-.017-.721 0-.251 0-.503.017-.738.017-.218.05-.553.101-.989.05-.436.134-.822.234-1.174.101-.352.252-.721.47-1.14.201-.402.453-.738.738-1.023q.428-.428 1.106-.704c.453-.185.956-.268 1.51-.268.553 0 1.073.083 1.526.268q.678.276 1.106.704c.285.285.52.621.738 1.023.201.419.352.788.453 1.14s.184.738.235 1.174q.075.654.1 1.006m-5.953.721c0 2.801.604 4.209 1.795 4.209s1.794-1.408 1.794-4.209c0-2.817-.604-4.226-1.794-4.226-1.191 0-1.795 1.409-1.795 4.226"/></svg>