<svg width="94" height="37" fill="none" xmlns="http://www.w3.org/2000/svg"><path fill="#fff" d="M13.56 26.138c-1.64.498-3.49.622-5.173.622-2.482 0-4.963-1.575-4.92-4.103v-8.125c-.043-2.57 2.48-3.813 5.004-3.854 1.64 0 3.45.372 5.089.994zM14.62.192h-1.06v8.496c-1.556-1.16-3.239-1.326-5.089-1.326-4.206 0-8.412 2.529-8.412 7.17v8.042c0 4.767 4.164 7.046 8.328 7.129 2.775 0 5.678-.58 8.538-1.533V2.462c0-1.254-1.033-2.271-2.306-2.271m21.269 7.502h-1.06v18.072c-1.472.497-3.196.705-5.13.705-2.44-.042-4.88-1.451-4.88-3.938V9.966c0-1.256-1.032-2.273-2.305-2.273h-1.06V22.45c0 4.726 4.123 7.088 8.245 7.13 1.85 0 4.416-.166 8.496-1.576V9.966c0-1.256-1.032-2.273-2.306-2.273M56.18 22.408c.043 2.57-2.481 3.854-5.004 3.896-1.725 0-3.49-.372-5.09-.953V11.01c1.6-.457 3.45-.498 5.174-.498 2.482 0 4.963 1.41 4.92 3.897zM51.26 7.362c-2.776 0-5.678.621-8.538 1.534v27.812h1.06c1.273 0 2.305-1.017 2.305-2.272v-6.018c1.556.995 3.28 1.16 5.047 1.16 4.248.042 8.454-2.487 8.454-7.17v-7.917c0-4.808-4.165-7.087-8.328-7.129m18.594.373c-3.449.664-6.225 3.109-6.225 6.964v14.506h1.059c1.273 0 2.306-1.017 2.306-2.272V14.7c0-1.99 1.64-3.234 3.364-3.69 1.388-.331 1.767-.165 3.324.083v-3.4c-1.263-.248-2.65-.248-3.829.042m20.39 9.699H80.065v-2.985c-.042-2.61 2.482-3.854 5.047-3.854 2.482 0 5.131 1.243 5.131 3.772zM85.112 7.32c-4.206 0-8.453 2.322-8.453 7.13v8.124c0 4.766 4.247 7.129 8.453 7.129 3.156 0 6.478-1.575 7.993-4.725l-3.03-1.493c-.883 1.99-2.986 2.943-4.963 2.943-2.565 0-5.089-1.243-5.047-3.854v-2.363H93.44v-5.762c0-4.807-4.206-7.129-8.328-7.129"/></svg>