<svg width="256" height="256" viewBox="0 0 256 256" fill="none" xmlns="http://www.w3.org/2000/svg">
<path d="M229.66 77.66L101.66 205.66C100.917 206.404 100.035 206.994 99.0635 207.396C98.0923 207.799 97.0513 208.006 96 208.006C94.9487 208.006 93.9077 207.799 92.9365 207.396C91.9653 206.994 91.083 206.404 90.34 205.66L34.34 149.66C32.8389 148.159 31.9955 146.123 31.9955 144C31.9955 141.877 32.8389 139.841 34.34 138.34C35.8411 136.839 37.8771 135.996 40 135.996C42.1229 135.996 44.1589 136.839 45.66 138.34L96 188.69L218.34 66.34C219.841 64.8389 221.877 63.9955 224 63.9955C226.123 63.9955 228.159 64.8389 229.66 66.34C231.161 67.8411 232.004 69.8771 232.004 72C232.004 74.1229 231.161 76.1589 229.66 77.66Z" fill="white"/>
</svg>
