<svg width="25" height="25" viewBox="0 0 25 25" fill="none" xmlns="http://www.w3.org/2000/svg">
<path d="M8.16179 22.2584C6.91902 22.2584 5.67605 21.7854 4.73015 20.8393C2.83796 18.9469 2.83796 15.868 4.73035 13.976L14.9044 3.80236C15.5698 3.13673 16.454 2.77032 17.3938 2.77032C18.3337 2.77032 19.218 3.13673 19.8835 3.80236L19.8995 3.81896C20.5559 4.47501 20.9225 5.35919 20.9225 6.29923C20.9225 7.23927 20.5559 8.12345 19.8903 8.78888L10.5077 18.1711L10.3815 18.2842C9.62156 19.0342 8.39343 19.0311 7.63777 18.276L7.62273 18.2609C7.25574 17.894 7.0532 17.4053 7.0532 16.8856C7.0532 16.3662 7.25593 15.8776 7.62371 15.5098L12.4997 10.634C12.6522 10.4815 12.8995 10.4815 13.052 10.634C13.2046 10.7865 13.2046 11.0338 13.052 11.1863L8.17605 16.0621C7.95574 16.2826 7.83445 16.5748 7.83445 16.8858C7.83445 17.1965 7.95574 17.4889 8.17605 17.7094L8.19109 17.7246C8.64402 18.1774 9.38308 18.177 9.83718 17.7234L19.338 8.23654C19.8559 7.71857 20.1413 7.03048 20.1413 6.29923C20.1413 5.56798 19.8559 4.87989 19.338 4.36212L19.3219 4.34532C18.8132 3.83673 18.1251 3.55157 17.3938 3.55157C16.6626 3.55157 15.9745 3.83673 15.4567 4.3547L5.28269 14.5285C3.695 16.116 3.695 18.6992 5.2825 20.2869C6.8698 21.874 9.4532 21.8746 11.0411 20.2869L21.2145 10.1129C21.3671 9.96036 21.6143 9.96036 21.7669 10.1129C21.9194 10.2654 21.9194 10.5127 21.7669 10.6652L11.5934 20.8393C10.6473 21.7854 9.40437 22.2584 8.16179 22.2584Z" fill="#0E3E8B"/>
</svg>
