<svg width="200" height="229" viewBox="0 0 200 229" fill="none" xmlns="http://www.w3.org/2000/svg">
<path d="M127.477 47.7164L116.688 58.505L74.1462 15.9638L82.1563 7.95457C83.6882 6.41884 86.1814 6.42082 87.7148 7.95222L127.477 47.7164ZM143.041 17.1256L166.761 40.845V31.216L147.855 12.3099C143.67 8.12282 136.856 8.12282 132.666 12.3099L117.184 27.7945L92.5309 3.14116C88.3406 -1.04823 81.5296 -1.04588 77.3429 3.14116L32.8354 47.6479V57.2767L69.3317 20.7792L106.896 58.3415C104.997 57.5779 102.649 56.9671 99.1821 56.9671C93.9971 56.9671 91.2896 58.3281 88.9001 59.5295C86.8562 60.5544 85.2424 61.3665 81.6731 61.3665C78.1012 61.3665 76.4854 60.5544 74.4426 59.5295C72.0533 58.3281 69.3433 56.9671 64.1579 56.9671C58.9728 56.9671 56.2637 58.3281 53.8733 59.5295C53.805 59.5628 53.7412 59.596 53.6727 59.6271V67.0609C54.9072 66.618 55.9506 66.1024 56.9301 65.6112C58.9728 64.5867 60.5868 63.7766 64.1579 63.7766C67.7293 63.7766 69.344 64.5867 71.3857 65.6112C73.7761 66.813 76.4872 68.174 81.6731 68.174C86.858 68.174 89.5657 66.813 91.9559 65.6112C93.9989 64.5867 95.6127 63.7766 99.1821 63.7766C102.751 63.7766 104.364 64.5867 106.404 65.6112C108.794 66.813 111.503 68.174 116.688 68.174V68.134L140.654 44.1712L166.761 70.2764V60.6474L140.654 34.5421L132.293 42.903L121.998 32.6079L137.482 17.1256C139.016 15.5919 141.505 15.5919 143.041 17.1256Z" fill="#214686"/>
<path d="M123.647 81.8485C121.584 82.8775 119.954 83.692 116.342 83.692C112.73 83.692 111.099 82.8775 109.032 81.8485C106.629 80.651 103.903 79.29 98.6874 79.29C93.4744 79.29 90.7498 80.651 88.3446 81.8485C86.2801 82.8775 84.6498 83.692 81.0382 83.692C77.4238 83.692 75.7916 82.8775 73.7255 81.8485C71.3199 80.6489 68.5931 79.29 63.3779 79.29C58.1608 79.29 55.434 80.651 53.0292 81.8485C53.0015 81.8617 52.9757 81.8727 52.9487 81.888V89.3309C54.121 88.9037 55.1211 88.4123 56.0643 87.9432C58.1304 86.9142 59.7625 86.0995 63.3779 86.0995C66.9914 86.0995 68.6234 86.9142 70.6898 87.9432C73.0953 89.1402 75.822 90.4992 81.0382 90.4992C86.2517 90.4992 88.9776 89.1402 91.3817 87.941C93.4468 86.9141 95.077 86.0995 98.6874 86.0995C102.3 86.0995 103.931 86.9141 105.996 87.941C108.401 89.1402 111.128 90.4992 116.342 90.4992C121.556 90.4992 124.28 89.1402 126.686 87.941C128.748 86.9141 130.379 86.0995 133.989 86.0995C137.601 86.0995 139.232 86.9141 141.292 87.941C142.199 88.3946 143.151 88.8682 144.264 89.2819V81.8152C141.876 80.6246 139.154 79.29 133.989 79.29C128.777 79.29 126.051 80.651 123.647 81.8485Z" fill="#214686"/>
<path d="M28.9157 173.831C25.4034 174.914 21.44 175.184 17.8366 175.184C12.5208 175.184 7.20719 171.76 7.29719 166.265V148.607C7.20719 143.024 12.6108 140.322 18.0165 140.231C21.5298 140.231 25.4034 141.041 28.9157 142.393V173.831ZM31.1839 117.441H28.9157V135.906C25.5833 133.386 21.9792 133.025 18.0165 133.025C9.00769 133.025 0 138.52 0 148.607V166.086C0 176.445 8.91805 181.398 17.8366 181.579C23.7808 181.579 29.9962 180.318 36.1229 178.247V122.378C36.1229 119.651 33.9114 117.441 31.1839 117.441Z" fill="black"/>
<path d="M76.7367 133.744H74.4674V173.022C71.315 174.101 67.6209 174.553 63.4791 174.553C58.2535 174.462 53.0276 171.399 53.0276 165.995V138.684C53.0276 135.955 50.8173 133.744 48.0899 133.744H45.8223V165.814C45.8223 176.084 54.6503 181.219 63.4791 181.31C67.4413 181.31 72.9366 180.949 81.6748 177.884V138.684C81.6748 135.955 79.4652 133.744 76.7367 133.744Z" fill="black"/>
<path d="M120.199 165.725C120.29 171.311 114.883 174.101 109.479 174.192C105.786 174.192 102.004 173.382 98.5801 172.121V140.952C102.004 139.961 105.967 139.87 109.661 139.87C114.977 139.87 120.29 142.933 120.199 148.339V165.725ZM109.661 133.025C103.714 133.025 97.4988 134.375 91.373 136.358V196.803H93.6425C96.3699 196.803 98.5801 194.592 98.5801 191.866V178.787C101.913 180.949 105.607 181.31 109.391 181.31C118.489 181.398 127.496 175.903 127.496 165.725V148.519C127.496 138.069 118.577 133.116 109.661 133.025Z" fill="black"/>
<path d="M149.482 133.835C142.097 135.278 136.151 140.592 136.151 148.97V180.497H138.419C141.146 180.497 143.359 178.287 143.359 175.56V148.97C143.359 144.646 146.871 141.942 150.562 140.952C153.537 140.231 154.347 140.592 157.682 141.132V133.744C154.977 133.204 152.005 133.204 149.482 133.835Z" fill="black"/>
<path d="M193.153 154.914H171.354V148.428C171.263 142.754 176.67 140.052 182.162 140.052C187.478 140.052 193.153 142.754 193.153 148.249V154.914ZM182.162 132.934C173.155 132.934 164.058 137.98 164.058 148.428V166.086C164.058 176.445 173.155 181.579 182.162 181.579C188.921 181.579 196.036 178.156 199.281 171.311L192.794 168.067C190.902 172.391 186.396 174.462 182.162 174.462C176.67 174.462 171.263 171.76 171.354 166.086V160.949H200V148.428C200 137.98 190.99 132.934 182.162 132.934Z" fill="black"/>
<path d="M34.14 215.768V225.108C34.14 225.326 34.0226 225.443 33.8046 225.443H32.1948C31.9769 225.443 31.8594 225.326 31.8594 225.108V214.292C31.8594 214.074 31.9769 213.957 32.1948 213.957H39.1034C39.3214 213.957 39.4388 214.074 39.4388 214.292V225.108C39.4388 225.326 39.3214 225.443 39.1034 225.443H37.4936C37.2757 225.443 37.1584 225.326 37.1584 225.108V215.768H34.14Z" fill="black"/>
<path d="M47.0365 220.849V225.108C47.0365 225.326 46.9191 225.443 46.7011 225.443H45.0913C44.8733 225.443 44.7559 225.326 44.7559 225.108V214.292C44.7559 214.074 44.8733 213.957 45.0913 213.957H47.8413C48.9984 213.957 49.8535 214.108 50.4069 214.426C51.3125 214.929 51.7652 215.835 51.7652 217.159C51.7652 218.283 51.4298 219.172 50.7423 219.842C50.0549 220.513 49.1157 220.849 47.9251 220.849H47.0365ZM47.0365 215.717V219.038H47.5563C47.8413 219.038 48.0928 219.021 48.2773 218.987C48.4618 218.954 48.663 218.887 48.8809 218.769C49.0822 218.652 49.2331 218.484 49.3338 218.233C49.4343 217.981 49.4847 217.663 49.4847 217.277C49.4847 216.992 49.4511 216.74 49.3672 216.522C49.2834 216.321 49.1829 216.17 49.0822 216.053C48.9648 215.952 48.8307 215.868 48.6462 215.818C48.4618 215.768 48.3276 215.734 48.2103 215.717C48.0928 215.717 47.9587 215.717 47.7742 215.717H47.0365Z" fill="black"/>
<path d="M63.7729 218.987C63.7897 219.205 63.7897 219.457 63.7897 219.708C63.7897 219.96 63.7897 220.211 63.7729 220.429C63.7561 220.647 63.7227 220.983 63.6723 221.419C63.622 221.855 63.5382 222.24 63.4375 222.593C63.3369 222.945 63.186 223.314 62.9848 223.716C62.7669 224.135 62.5321 224.471 62.2469 224.756C61.962 225.041 61.5929 225.259 61.1402 225.46C60.6875 225.644 60.1676 225.728 59.6143 225.728C59.0609 225.728 58.558 225.644 58.1051 225.46C57.6524 225.259 57.2835 225.041 56.9984 224.756C56.7134 224.471 56.4618 224.135 56.2607 223.716C56.0426 223.314 55.8917 222.945 55.791 222.593C55.6905 222.24 55.6067 221.855 55.5563 221.419C55.506 220.983 55.4724 220.647 55.4558 220.429C55.439 220.211 55.439 219.96 55.439 219.708C55.439 219.457 55.439 219.205 55.4558 218.97C55.4724 218.753 55.506 218.417 55.5563 217.981C55.6067 217.545 55.6905 217.159 55.791 216.807C55.8917 216.455 56.0426 216.086 56.2607 215.667C56.4618 215.265 56.7134 214.929 56.9984 214.644C57.2835 214.359 57.6524 214.124 58.1051 213.94C58.558 213.755 59.0609 213.672 59.6143 213.672C60.1676 213.672 60.6875 213.755 61.1402 213.94C61.5929 214.124 61.962 214.359 62.2469 214.644C62.5321 214.929 62.7669 215.265 62.9848 215.667C63.186 216.086 63.3369 216.455 63.4375 216.807C63.5382 217.159 63.622 217.545 63.6723 217.981C63.7227 218.417 63.7561 218.753 63.7729 218.987ZM57.8201 219.708C57.8201 222.509 58.4237 223.917 59.6143 223.917C60.8048 223.917 61.4086 222.509 61.4086 219.708C61.4086 216.891 60.8048 215.483 59.6143 215.483C58.4237 215.483 57.8201 216.891 57.8201 219.708Z" fill="black"/>
<path d="M68.4194 225.108V214.292C68.4194 214.074 68.5369 213.957 68.7548 213.957H70.3647C70.5826 213.957 70.7001 214.074 70.7001 214.292V219.122C70.7001 219.339 70.7001 219.624 70.6833 219.943C70.6665 220.262 70.6497 220.782 70.6329 221.469H70.7001C71.0689 220.547 71.4378 219.691 71.8068 218.87L73.9196 214.309C74.0034 214.124 74.1041 214.007 74.1879 213.973C74.2382 213.957 74.2884 213.957 74.3556 213.957H75.9485C76.1666 213.957 76.2839 214.074 76.2839 214.292V225.108C76.2839 225.326 76.1666 225.443 75.9485 225.443H74.3388C74.1207 225.443 74.0034 225.326 74.0034 225.108V219.775C74.0034 219.323 74.0202 218.719 74.0705 217.931H74.0034C73.7518 218.618 73.4501 219.356 73.0644 220.178L70.7503 225.158C70.7001 225.275 70.6665 225.343 70.6162 225.376C70.5658 225.426 70.482 225.443 70.3647 225.443H68.7548C68.5369 225.443 68.4194 225.326 68.4194 225.108Z" fill="black"/>
<path d="M82.5902 220.094V218.954C82.5902 218.736 82.7075 218.618 82.9256 218.618H83.2777C83.6131 218.618 83.8981 218.568 84.1496 218.468C84.4012 218.367 84.5689 218.25 84.6862 218.132C84.8037 218.015 84.8875 217.881 84.9545 217.696C85.0216 217.512 85.0552 217.377 85.072 217.294C85.072 217.21 85.072 217.109 85.072 217.009C85.072 216.874 85.0552 216.74 85.0384 216.606C85.0048 216.489 84.9377 216.321 84.8539 216.12C84.77 215.935 84.6023 215.768 84.3844 215.65C84.1496 215.533 83.8646 215.483 83.5292 215.483C83.0429 215.483 82.5398 215.667 82.0369 216.019C81.886 216.137 81.7853 216.187 81.7183 216.187C81.6512 216.187 81.584 216.137 81.5001 216.019L80.9302 215.164C80.8797 215.08 80.8463 215.013 80.8463 214.946C80.8463 214.762 80.9972 214.594 81.2822 214.426C82.0703 213.923 82.9591 213.672 83.9485 213.672C84.9714 213.672 85.7763 213.94 86.3631 214.477C86.95 215.013 87.235 215.768 87.235 216.724C87.235 217.143 87.168 217.528 87.0507 217.864C86.9164 218.216 86.7487 218.484 86.5476 218.669C86.3296 218.87 86.1619 219.021 86.011 219.122C85.8601 219.222 85.6924 219.306 85.5415 219.356C86.1954 219.474 86.6985 219.792 87.0673 220.278C87.4195 220.782 87.6041 221.419 87.6041 222.19C87.6041 223.213 87.2686 224.051 86.6146 224.722C85.9606 225.393 84.9209 225.728 83.5124 225.728C82.238 225.728 81.2822 225.46 80.645 224.94C80.5109 224.84 80.4438 224.739 80.4438 224.655C80.4438 224.588 80.4773 224.504 80.5277 224.404L81.0474 223.465C81.1145 223.347 81.1815 223.297 81.2654 223.297C81.299 223.297 81.4331 223.364 81.6847 223.498C82.171 223.783 82.7411 223.917 83.3951 223.917C84.0826 223.917 84.6023 223.716 84.9377 223.33C85.1893 223.028 85.3234 222.643 85.3234 222.19C85.3234 221.469 85.0886 220.966 84.6359 220.681C84.351 220.513 83.9485 220.429 83.4118 220.429H82.9256C82.7075 220.429 82.5902 220.312 82.5902 220.094Z" fill="black"/>
<path d="M92.6865 213.957H95.336C96.6774 213.957 97.6333 214.175 98.22 214.611C98.9077 215.131 99.2431 215.902 99.2431 216.891C99.2431 218.098 98.6729 218.937 97.5326 219.423C97.7003 219.474 97.868 219.524 98.0189 219.574C98.1698 219.641 98.3543 219.742 98.5555 219.893C98.7568 220.044 98.9411 220.211 99.092 220.396C99.2431 220.597 99.3604 220.865 99.4778 221.184C99.5783 221.503 99.6287 221.871 99.6287 222.274C99.6287 222.827 99.5449 223.297 99.3604 223.699C99.1759 224.102 98.9579 224.404 98.7064 224.621C98.4382 224.84 98.1028 225.024 97.7171 225.141C97.3147 225.275 96.9456 225.359 96.6104 225.393C96.275 225.426 95.8893 225.443 95.4701 225.443H92.6865C92.4685 225.443 92.3511 225.326 92.3511 225.108V214.292C92.3511 214.074 92.4685 213.957 92.6865 213.957ZM94.6317 218.702H95.1515C96.3757 218.702 96.9792 218.182 96.9792 217.126C96.9792 216.187 96.4259 215.717 95.336 215.717H94.6317V218.702ZM94.6317 223.682H95.2353C95.5371 223.682 95.7887 223.666 96.0066 223.632C96.208 223.599 96.4259 223.532 96.6606 223.431C96.8786 223.347 97.0631 223.179 97.1804 222.945C97.2978 222.727 97.3649 222.442 97.3649 222.089C97.3649 221.771 97.3147 221.503 97.1972 221.285C97.0799 221.067 96.9624 220.916 96.8283 220.798C96.6943 220.698 96.5097 220.614 96.2918 220.563C96.057 220.513 95.8725 220.48 95.7551 220.463C95.621 220.463 95.4533 220.463 95.2689 220.463H94.6317V223.682Z" fill="black"/>
<path d="M112.106 218.987C112.123 219.205 112.123 219.457 112.123 219.708C112.123 219.96 112.123 220.211 112.106 220.429C112.089 220.647 112.056 220.983 112.005 221.419C111.955 221.855 111.871 222.24 111.771 222.593C111.67 222.945 111.519 223.314 111.318 223.716C111.1 224.135 110.865 224.471 110.58 224.756C110.295 225.041 109.926 225.259 109.473 225.46C109.021 225.644 108.501 225.728 107.947 225.728C107.394 225.728 106.891 225.644 106.438 225.46C105.985 225.259 105.617 225.041 105.331 224.756C105.046 224.471 104.795 224.135 104.594 223.716C104.376 223.314 104.225 222.945 104.124 222.593C104.024 222.24 103.94 221.855 103.889 221.419C103.839 220.983 103.805 220.647 103.789 220.429C103.772 220.211 103.772 219.96 103.772 219.708C103.772 219.457 103.772 219.205 103.789 218.97C103.805 218.753 103.839 218.417 103.889 217.981C103.94 217.545 104.024 217.159 104.124 216.807C104.225 216.455 104.376 216.086 104.594 215.667C104.795 215.265 105.046 214.929 105.331 214.644C105.617 214.359 105.985 214.124 106.438 213.94C106.891 213.755 107.394 213.672 107.947 213.672C108.501 213.672 109.021 213.755 109.473 213.94C109.926 214.124 110.295 214.359 110.58 214.644C110.865 214.929 111.1 215.265 111.318 215.667C111.519 216.086 111.67 216.455 111.771 216.807C111.871 217.159 111.955 217.545 112.005 217.981C112.056 218.417 112.089 218.753 112.106 218.987ZM106.153 219.708C106.153 222.509 106.757 223.917 107.947 223.917C109.138 223.917 109.742 222.509 109.742 219.708C109.742 216.891 109.138 215.483 107.947 215.483C106.757 215.483 106.153 216.891 106.153 219.708Z" fill="black"/>
<path d="M122.487 225.443H117.725V227.824C117.725 228.042 117.607 228.16 117.389 228.16H115.931C115.713 228.16 115.595 228.042 115.595 227.824V223.968C115.595 223.749 115.713 223.632 115.931 223.632H116.249C116.702 222.827 117.004 221.888 117.188 220.815C117.356 219.792 117.44 218.685 117.44 217.528L117.456 214.292C117.456 214.074 117.574 213.957 117.792 213.957H123.275C123.493 213.957 123.611 214.074 123.611 214.292V223.632H124.281C124.499 223.632 124.617 223.749 124.617 223.968V227.824C124.617 228.042 124.499 228.16 124.281 228.16H122.822C122.605 228.16 122.487 228.042 122.487 227.824V225.443ZM121.33 223.632V215.768H119.603V217.864C119.603 219.122 119.469 220.329 119.217 221.503C119.066 222.257 118.815 222.961 118.479 223.632H121.33Z" fill="black"/>
<path d="M134.881 223.465L135.401 224.404C135.451 224.504 135.484 224.588 135.484 224.655C135.484 224.739 135.417 224.84 135.283 224.94C134.646 225.46 133.774 225.728 132.667 225.728C129.8 225.728 128.358 223.766 128.358 219.859C128.358 218.87 128.458 217.981 128.643 217.227C128.827 216.472 129.062 215.868 129.347 215.432C129.632 214.996 129.968 214.644 130.353 214.359C130.739 214.091 131.125 213.906 131.494 213.806C131.846 213.722 132.231 213.672 132.617 213.672C133.657 213.672 134.495 213.957 135.132 214.51C135.35 214.694 135.451 214.829 135.451 214.946C135.451 214.98 135.417 215.047 135.367 215.164L134.747 216.103C134.68 216.22 134.613 216.271 134.562 216.271C134.478 216.271 134.361 216.204 134.21 216.086C133.707 215.684 133.237 215.483 132.818 215.483C132.248 215.483 131.795 215.667 131.46 216.019C130.974 216.505 130.739 217.746 130.739 219.742C130.739 221.469 130.957 222.626 131.393 223.213C131.745 223.682 132.248 223.917 132.869 223.917C133.321 223.917 133.774 223.783 134.244 223.498C134.462 223.364 134.613 223.297 134.663 223.297C134.747 223.297 134.814 223.347 134.881 223.465Z" fill="black"/>
<path d="M143.065 215.969V225.108C143.065 225.326 142.948 225.443 142.73 225.443H141.12C140.902 225.443 140.785 225.326 140.785 225.108V215.969H138.554C138.387 215.969 138.303 215.885 138.303 215.717V214.208C138.303 214.04 138.387 213.957 138.554 213.957H145.681C145.899 213.957 145.966 214.074 145.899 214.309L145.53 215.701C145.48 215.885 145.362 215.969 145.178 215.969H143.065Z" fill="black"/>
<path d="M149.724 213.957H152.373C153.715 213.957 154.67 214.175 155.257 214.611C155.945 215.131 156.28 215.902 156.28 216.891C156.28 218.098 155.71 218.937 154.57 219.423C154.737 219.474 154.905 219.524 155.056 219.574C155.207 219.641 155.391 219.742 155.593 219.893C155.794 220.044 155.978 220.211 156.129 220.396C156.28 220.597 156.398 220.865 156.515 221.184C156.615 221.503 156.666 221.871 156.666 222.274C156.666 222.827 156.582 223.297 156.398 223.699C156.213 224.102 155.995 224.404 155.743 224.621C155.475 224.84 155.14 225.024 154.754 225.141C154.352 225.275 153.983 225.359 153.648 225.393C153.312 225.426 152.926 225.443 152.507 225.443H149.724C149.506 225.443 149.388 225.326 149.388 225.108V214.292C149.388 214.074 149.506 213.957 149.724 213.957ZM151.669 218.702H152.189C153.413 218.702 154.016 218.182 154.016 217.126C154.016 216.187 153.463 215.717 152.373 215.717H151.669V218.702ZM151.669 223.682H152.272C152.574 223.682 152.826 223.666 153.044 223.632C153.245 223.599 153.463 223.532 153.698 223.431C153.916 223.347 154.1 223.179 154.218 222.945C154.335 222.727 154.402 222.442 154.402 222.089C154.402 221.771 154.352 221.503 154.234 221.285C154.117 221.067 154 220.916 153.865 220.798C153.731 220.698 153.547 220.614 153.329 220.563C153.094 220.513 152.91 220.48 152.792 220.463C152.658 220.463 152.49 220.463 152.306 220.463H151.669V223.682Z" fill="black"/>
<path d="M169.143 218.987C169.16 219.205 169.16 219.457 169.16 219.708C169.16 219.96 169.16 220.211 169.143 220.429C169.126 220.647 169.093 220.983 169.042 221.419C168.992 221.855 168.908 222.24 168.808 222.593C168.707 222.945 168.556 223.314 168.355 223.716C168.137 224.135 167.902 224.471 167.617 224.756C167.332 225.041 166.963 225.259 166.51 225.46C166.058 225.644 165.538 225.728 164.984 225.728C164.431 225.728 163.928 225.644 163.475 225.46C163.023 225.259 162.654 225.041 162.369 224.756C162.084 224.471 161.832 224.135 161.631 223.716C161.413 223.314 161.262 222.945 161.161 222.593C161.061 222.24 160.977 221.855 160.926 221.419C160.876 220.983 160.843 220.647 160.826 220.429C160.809 220.211 160.809 219.96 160.809 219.708C160.809 219.457 160.809 219.205 160.826 218.97C160.843 218.753 160.876 218.417 160.926 217.981C160.977 217.545 161.061 217.159 161.161 216.807C161.262 216.455 161.413 216.086 161.631 215.667C161.832 215.265 162.084 214.929 162.369 214.644C162.654 214.359 163.023 214.124 163.475 213.94C163.928 213.755 164.431 213.672 164.984 213.672C165.538 213.672 166.058 213.755 166.51 213.94C166.963 214.124 167.332 214.359 167.617 214.644C167.902 214.929 168.137 215.265 168.355 215.667C168.556 216.086 168.707 216.455 168.808 216.807C168.908 217.159 168.992 217.545 169.042 217.981C169.093 218.417 169.126 218.753 169.143 218.987ZM163.19 219.708C163.19 222.509 163.794 223.917 164.984 223.917C166.175 223.917 166.779 222.509 166.779 219.708C166.779 216.891 166.175 215.483 164.984 215.483C163.794 215.483 163.19 216.891 163.19 219.708Z" fill="black"/>
</svg>
