<svg width="94" height="37" viewBox="0 0 94 37" fill="none" xmlns="http://www.w3.org/2000/svg">
<path d="M13.56 26.138C11.9201 26.6361 10.0695 26.7601 8.38707 26.7601C5.90513 26.7601 3.42417 25.185 3.46616 22.6566V14.5318C3.42417 11.9628 5.94712 10.7194 8.47105 10.6777C10.1115 10.6777 11.9201 11.0504 13.56 11.6725V26.138ZM14.6191 0.191528H13.56V8.68796C12.0041 7.52823 10.3213 7.36211 8.47105 7.36211C4.26478 7.36211 0.059082 9.89052 0.059082 14.5318V22.5741C0.059082 27.3406 4.22294 29.6196 8.38707 29.703C11.1625 29.703 14.0645 29.1226 16.9251 28.1695V2.46327C16.9251 1.2087 15.8925 0.191528 14.6191 0.191528Z" fill="white"/>
<path d="M35.888 7.69312H34.8284V25.7654C33.3565 26.2623 31.6318 26.47 29.6979 26.47C27.2581 26.4283 24.8181 25.019 24.8181 22.5324V9.96595C24.8181 8.71035 23.786 7.69312 22.5126 7.69312H21.4539V22.4489C21.4539 27.1747 25.5757 29.5371 29.6979 29.5788C31.5479 29.5788 34.1136 29.4128 38.1936 28.0026V9.96595C38.1936 8.71035 37.1619 7.69312 35.888 7.69312Z" fill="white"/>
<path d="M56.1809 22.4082C56.2232 24.9784 53.6989 26.2623 51.1756 26.3041C49.4511 26.3041 47.6851 25.9315 46.0866 25.3511V11.0097C47.6851 10.5535 49.5358 10.5118 51.2604 10.5118C53.7423 10.5118 56.2232 11.9211 56.1809 14.4087V22.4082ZM51.2604 7.36218C48.4839 7.36218 45.5818 7.98336 42.7217 8.89574V36.7077H43.7813C45.0547 36.7077 46.0866 35.6905 46.0866 34.436V28.418C47.6428 29.4129 49.3673 29.5789 51.1343 29.5789C55.3822 29.6196 59.5877 27.0912 59.5877 22.4082V14.4913C59.5877 9.68289 55.4235 7.40404 51.2604 7.36218Z" fill="white"/>
<path d="M69.8535 7.73475C66.4054 8.39874 63.6289 10.8436 63.6289 14.6988V29.205H64.688C65.9611 29.205 66.9944 28.1878 66.9944 26.9333V14.6988C66.9944 12.709 68.6342 11.4647 70.3577 11.0096C71.7464 10.6776 72.1246 10.8436 73.6818 11.092V7.69303C72.4192 7.44457 71.0314 7.44457 69.8535 7.73475Z" fill="white"/>
<path d="M90.2433 17.4338H80.0654V14.4492C80.023 11.8384 82.5474 10.5951 85.1119 10.5951C87.5939 10.5951 90.2433 11.8384 90.2433 14.3668V17.4338ZM85.1119 7.32031C80.9065 7.32031 76.6587 9.64198 76.6587 14.4492V22.5741C76.6587 27.3405 80.9065 29.7029 85.1119 29.7029C88.2677 29.7029 91.5897 28.1276 93.1045 24.9782L90.0759 23.4855C89.1924 25.4752 87.0887 26.4282 85.1119 26.4282C82.5474 26.4282 80.023 25.1849 80.0654 22.5741V20.2107H93.4404V14.4492C93.4404 9.64198 89.2338 7.32031 85.1119 7.32031Z" fill="white"/>
</svg>
