<svg width="25" height="25" fill="none" xmlns="http://www.w3.org/2000/svg"><path fill="#0E3E8B" d="M8.162 22.258A4.84 4.84 0 0 1 4.73 20.84a4.86 4.86 0 0 1 0-6.863L14.904 3.802a3.5 3.5 0 0 1 2.49-1.032c.94 0 1.824.367 2.49 1.032l.015.017a3.5 3.5 0 0 1 1.023 2.48c0 .94-.366 1.824-1.032 2.49l-9.382 9.382-.126.113a1.95 1.95 0 0 1-2.744-.008l-.015-.015a1.93 1.93 0 0 1-.57-1.375c0-.52.203-1.008.57-1.376l4.877-4.876a.39.39 0 0 1 .552.552l-4.876 4.876a1.16 1.16 0 0 0 0 1.647l.015.016a1.166 1.166 0 0 0 1.646-.002l9.501-9.486a2.72 2.72 0 0 0 .803-1.938 2.72 2.72 0 0 0-.803-1.937l-.016-.017a2.72 2.72 0 0 0-1.928-.793 2.72 2.72 0 0 0-1.937.803L5.283 14.529a4.076 4.076 0 0 0 0 5.758 4.077 4.077 0 0 0 5.758 0l10.174-10.174a.39.39 0 0 1 .552.552L11.593 20.84a4.84 4.84 0 0 1-3.431 1.42"/></svg>